<svg xmlns="http://www.w3.org/2000/svg" width="400" height="400"><g fill-rule="evenodd"><path d="M12.185 276.5c-.105.275-.144 25.43-.088 55.9l.103 55.4h6.4l.2-13.09.2-13.09 4.159-3.91c5.011-4.711 4.198-4.526 6.841-1.56 2.426 2.724 8.957 9.898 12.422 13.646a602.419 602.419 0 014.2 4.594 593.159 593.159 0 004.401 4.8 677.64 677.64 0 014.4 4.788c4.098 4.515 2.592 4.022 12.292 4.022 9.969 0 9.685.113 6.984-2.768a2561.486 2561.486 0 01-7.099-7.628l-7.418-7.997c-1.33-1.434-3.49-3.771-4.8-5.195-4.094-4.447-7.557-8.172-8.188-8.804C44.867 353.271 38 345.554 38 345.275c0-.189 8.259-8.555 18.353-18.59 10.095-10.035 18.255-18.344 18.134-18.465-.121-.121-3.916-.22-8.433-.22h-8.213l-2.974 3.1a1929.34 1929.34 0 01-9.226 9.5 6128.622 6128.622 0 00-16.028 16.5c-5.376 5.555-10.008 10.1-10.294 10.1-.422 0-.519-6.685-.519-35.6V276h-3.213c-2.201 0-3.272.157-3.402.5m248.015 2.354c-25.648 4.608-38.98 20.832-41.431 50.418-2.223 26.815 9.243 50.139 28.444 57.86 2.197.884 2.347.889 22.062.779l19.849-.111 3.847-1.974c8.095-4.155 14.664-10.933 19.022-19.629 1.324-2.642 2.407-5.107 2.407-5.477 0-.37.159-.771.352-.89.194-.12.449-.626.567-1.124.119-.498.588-2.346 1.043-4.106 2.197-8.501 3.007-23.873 1.674-31.8-4.341-25.819-17.44-39.871-41.003-43.987-2.827-.493-14.009-.466-16.833.041m96.4.005c-8.274 1.506-13.217 3.357-18.588 6.961-9.121 6.119-13.165 13.514-13.198 24.134-.013 4.227.162 5.527 1.245 9.246 2.99 10.261 12.034 17.04 27.141 20.343 2.305.504 7.149 1.379 13.7 2.475 6.269 1.049 8.459 1.537 12.7 2.831 2.878.878 7.6 3.158 7.6 3.67 0 .181.18.217.4.081.626-.387.531-16.403-.1-16.879-.275-.207-1.31-.61-2.3-.895-.99-.285-2.25-.656-2.8-.823-.55-.167-1.99-.515-3.2-.773a606.1 606.1 0 01-3.8-.823c-.88-.194-2.77-.554-4.2-.799-1.43-.244-3.545-.616-4.7-.826-1.155-.21-3.045-.551-4.2-.758-4.027-.721-6.907-1.312-7.9-1.62-.55-.171-1.81-.55-2.8-.841-8.162-2.405-11.6-6.939-11.6-15.298 0-13.693 17.152-21.281 37.2-16.456.55.132 1.81.429 2.8.659.99.231 3.05.851 4.577 1.379 3.563 1.231 3.462 1.419 3.333-6.245l-.11-6.537-2-.5c-8.013-2.002-22.821-2.868-29.2-1.706m-82.92 11.944c3.858.733 6.11 1.249 6.92 1.584.44.183 1.413.564 2.163.847 5.968 2.255 12.566 8.872 15.92 15.966 6.541 13.832 6.577 37.142.08 51.131-3.227 6.949-10.05 13.787-16 16.035-.75.283-1.723.664-2.163.847-.81.335-3.062.851-6.92 1.584-7.163 1.361-17.448-.786-23.68-4.945-4.628-3.088-8.841-8.103-11.393-13.561-1.743-3.727-2.246-5.281-3.589-11.091-1.681-7.275-1.681-21.525 0-28.8 1.343-5.81 1.846-7.364 3.589-11.091 6.249-13.365 21.045-21.172 35.073-18.506m-94.88 15.424c-16.5 3.291-26.068 14.111-24 27.139 1.871 11.788 8.614 16.82 27.6 20.599 9.957 1.981 10.135 2.023 13.4 3.183 5.495 1.952 7.383 4.379 7.393 9.503.012 5.965-2.185 8.817-8.593 11.157-6.724 2.454-18.651 1.303-27.296-2.635-.932-.425-1.773-.773-1.868-.773-.455 0-7.297-4.157-8.571-5.207-2.499-2.06-2.494-2.074-2.373 6.701l.108 7.893 4.062 1.669c6.327 2.601 6.44 2.612 25.138 2.471l16.8-.127 3.145-1.6c10.225-5.202 15.475-15.458 13.281-25.942-1.944-9.295-8.933-14.829-22.026-17.444-1.32-.263-3.12-.63-4-.814-.88-.184-2.68-.546-4-.804-14.078-2.751-18.2-5.616-18.2-12.649 0-10.631 15.832-15.043 31.9-8.892.495.19 1.305.5 1.8.688 1.866.712 7.766 3.805 9.403 4.93 2.438 1.674 2.498 1.526 2.491-6.197-.007-8.06.269-7.383-3.694-9.056-8.787-3.708-23.534-5.462-31.9-3.793M78.408 336.9c.008 29.313.072 30.836 1.518 36.3 1.099 4.148 3.487 8.237 6.578 11.264 3.73 3.652 3.103 3.536 19.084 3.536 16.201 0 14.807.285 21.855-4.471 4.952-3.343 4.557-3.4 4.557.663 0 4.119-.497 3.881 7.8 3.723l6-.115v-79.6h-13.6l-.103 30.29-.102 30.289-3.013 2.033c-15.81 10.669-31.142 10.039-35.2-1.445-1.513-4.281-1.743-8.945-1.763-35.667L92 308H78.4l.008 28.9m245.684 36.937l.108 9.037 2.4.985c1.32.542 4.534 1.696 7.143 2.563l4.744 1.578h22.697c29.377 0 26.816.859 26.816-8.995 0-7.868.015-7.823-2.058-6.048-8.564 7.33-28.189 8.151-43.442 1.817-.495-.206-1.305-.532-1.8-.725-4.04-1.576-10.065-5.078-13.958-8.113-2.794-2.178-2.77-2.25-2.65 7.901" fill="#eee"/><path d="M11.881 199.863c-.138 103.324-.185 187.969-.104 188.1.231.373 375.717.277 376.09-.096.183-.184.305-24.394.271-53.8-.035-29.407-.08-113.902-.1-187.767L388 12H12.132l-.251 187.863M174.8 92.603c21.354 2.814 44.568 11.653 57.859 22.032 4.429 3.458 4.211 6.771-1.158 17.644-2.415 4.891-1.636 4.542-9.157 4.105-12.1-.704-23.75-.324-37.144 1.212-9.226 1.059-9.707 1.044-11.738-.353-4.587-3.156-14.492-8.345-24.662-12.919-7.053-3.173-8.102-3.633-12.6-5.536-13.275-5.614-12.738-5.342-13.06-6.605-1.552-6.075-1.917-12.983-.687-12.983.196 0 1.119-.354 2.051-.787 6.709-3.113 18.029-5.641 29.496-6.585 3.561-.293 16.294.181 20.8.775m-63.458 13.303c.104.169.389 1.654.633 3.3.243 1.647.546 3.469.672 4.049.196.903-.02 1.228-1.509 2.263-2.222 1.545-7.288 5.804-11.696 9.834l-3.449 3.152-4.496-.895c-6.016-1.198-5.984-.906-.684-6.228 8.244-8.276 19.66-16.882 20.529-15.475m12.092 18.935c7.703 3.188 8.793 3.644 11.566 4.842 1.54.665 3.79 1.65 5 2.188 1.21.538 3.28 1.453 4.6 2.033 5.008 2.201 17.737 8.814 20.964 10.891l3.365 2.165-.276 27.011c-.152 14.857-.434 27.17-.628 27.364-1.009 1.009-7.034-3.335-10.3-7.429-3.499-4.385-6.819-7.918-10.666-11.348-3.732-3.327-4.443-4.382-6.111-9.061-5.039-14.136-16.178-28.406-28.689-36.752-5.808-3.875-5.697-3.603-2.594-6.347 9.176-8.112 8.375-7.789 13.769-5.557m123.492 4.859c7.768 9.569 19.874 31.868 19.874 36.606 0 1.732-8.878 12.653-9.599 11.809-.149-.173-1.408-3.195-2.799-6.715-3.777-9.555-8.67-18.936-13.979-26.8-1.983-2.937-1.989-2.553.106-6.633.951-1.852 2.137-4.447 2.635-5.767 1.511-4.002 1.605-4.2 2.001-4.2.21 0 1.002.765 1.761 1.7M85.8 135.793c28.143 4.066 47.646 28.565 56.525 71.007 1.982 9.473 3.186 32.031 1.932 36.2l-.481 1.6-3.788.326c-8.589.74-37.397-.21-46.588-1.536-35.011-5.05-54.658-20.073-59.755-45.691-6.516-32.75 8.767-57.547 38.355-62.232 2.432-.385 10.142-.203 13.8.326m143.485 11.853c3.685 1.968 20.071 35.639 18.352 37.71-2.999 3.613-26.064 12.004-41.437 15.075-7.374 1.472-18.472 2.769-23.703 2.769h-3.427l.25-26.529c.138-14.591.352-26.794.477-27.12.16-.415 1.382-.732 4.115-1.065 5.853-.713 11.229-1.281 13.688-1.445 4.129-.275 30.998.238 31.685.605m57.435 10.034c1.203 1.203.325 4.232-3.222 11.12-3.72 7.225-5.948 8.161-7.688 3.229-.336-.953-1.333-3.039-2.215-4.637-1.855-3.362-1.801-3.738.728-5.101 9.286-5.003 11.268-5.74 12.397-4.611M52.6 159.741c-7.018 3.275-8.622 13.154-2.927 18.028 5.842 5.001 15.109-.345 15.123-8.723.013-7.589-6.016-12.189-12.196-9.305m41.662.042c-6.198 2.21-7.847 11.706-2.992 17.235 3.994 4.55 10.598 4.159 13.984-.827 5.358-7.89-2.4-19.471-10.992-16.408m177.633 22.247c3.442 11.882 1.649 16.706-8.495 22.862-15.571 9.45-27.682 14.669-44.8 19.306-19.002 5.148-26.124 6.02-48.172 5.896-18.485-.103-16.827.253-16.832-3.621-.006-4.858-1.142-14.116-2.558-20.846-.795-3.779-.706-3.826 2.063-1.095 10.522 10.375 25.153 11.97 55.29 6.026 27.344-5.393 45.599-13.629 58.009-26.17 4.725-4.774 4.787-4.801 5.495-2.358m-189.336 6.748c-.683.164-3.203 1.351-5.6 2.64-7.437 3.997-7.863 4.179-9.795 4.18-2.33.002-5.74-1.675-8.857-4.358-6.885-5.925-9.514-.241-2.884 6.235 8.602 8.402 13.996 9.548 20.777 4.417 9.341-7.068 11.567-9.558 10.609-11.871-.629-1.518-1.739-1.842-4.25-1.243m183.559 30.858c3.71 1.69 9.175 21.262 7.305 26.16-1.505 3.941-12.056 7.025-24.043 7.028-14.544.004-16.802-1.857-16.733-13.794.046-8.082-.341-7.487 6.264-9.637 2.469-.804 8.989-3.412 14.489-5.796 10.279-4.454 11.085-4.705 12.718-3.961m-88.259 22.423c5.997.918 6.514 1.656 9.507 13.583 4.719 18.806 4.049 19.711-15.864 21.433-9.706.84-16.375.227-20.279-1.863-3.977-2.128-2.964-20.976 1.651-30.703 1.437-3.029 13.491-4.211 24.985-2.45m-117.764 1.31c4.848 2.218 9.949 3.989 15.705 5.455l4.6 1.171c.77.196 3.92.735 7 1.197 3.08.463 6.229.969 6.998 1.125l1.397.283.473 3.2c1.141 7.734.708 9.838-2.484 12.081-5.45 3.828-28.646 4.893-34.684 1.592-3.813-2.085-4.691-14.256-1.846-25.573.447-1.778.211-1.734 2.841-.531M18.8 311.6c0 28.915.097 35.6.519 35.6.286 0 4.918-4.545 10.294-10.1a6128.622 6128.622 0 0116.028-16.5 1929.34 1929.34 0 009.226-9.5l2.974-3.1h8.213c4.517 0 8.312.099 8.433.22.121.121-8.039 8.43-18.134 18.465C46.259 336.72 38 345.086 38 345.275c0 .279 6.867 7.996 9.194 10.333.631.632 4.094 4.357 8.188 8.804 1.31 1.424 3.47 3.761 4.8 5.195l7.418 7.997c2.75 2.965 5.944 6.397 7.099 7.628C77.4 388.113 77.684 388 67.715 388c-9.7 0-8.194.493-12.292-4.022a677.64 677.64 0 00-4.4-4.788 593.159 593.159 0 01-4.401-4.8 602.419 602.419 0 00-4.2-4.594c-3.465-3.748-9.996-10.922-12.422-13.646-2.643-2.966-1.83-3.151-6.841 1.56L19 361.62l-.2 13.09-.2 13.09h-6.4l-.103-55.4c-.056-30.47-.017-55.625.088-55.9.13-.343 1.201-.5 3.402-.5H18.8v35.6m258.233-32.787c23.563 4.116 36.662 18.168 41.003 43.987 1.333 7.927.523 23.299-1.674 31.8-.455 1.76-.924 3.608-1.043 4.106-.118.498-.373 1.004-.567 1.124-.193.119-.352.52-.352.89s-1.083 2.835-2.407 5.477c-4.358 8.696-10.927 15.474-19.022 19.629l-3.847 1.974-19.849.111c-19.715.11-19.865.105-22.062-.779-19.201-7.721-30.667-31.045-28.444-57.86 2.451-29.586 15.783-45.81 41.431-50.418 2.824-.507 14.006-.534 16.833-.041m98.967.005c3.826.471 6.855 1.011 9.8 1.747l2 .5.11 6.537c.129 7.664.23 7.476-3.333 6.245-1.527-.528-3.587-1.148-4.577-1.379-.99-.23-2.25-.527-2.8-.659-20.048-4.825-37.2 2.763-37.2 16.456 0 8.359 3.438 12.893 11.6 15.298.99.291 2.25.67 2.8.841.993.308 3.873.899 7.9 1.62 1.155.207 3.045.548 4.2.758 1.155.21 3.27.582 4.7.826 1.43.245 3.32.605 4.2.799.88.195 2.59.565 3.8.823s2.65.606 3.2.773c.55.167 1.81.538 2.8.823.99.285 2.025.688 2.3.895.631.476.726 16.492.1 16.879-.22.136-.4.1-.4-.081 0-.512-4.722-2.792-7.6-3.67-4.241-1.294-6.431-1.782-12.7-2.831-6.551-1.096-11.395-1.971-13.7-2.475-15.107-3.303-24.151-10.082-27.141-20.343-1.083-3.719-1.258-5.019-1.245-9.246.033-10.62 4.077-18.015 13.198-24.134 5.371-3.604 10.314-5.455 18.588-6.961 2.824-.514 15.344-.541 19.4-.041m-113 12.08c-11.155 1.777-19.594 8.146-24.393 18.411-1.743 3.727-2.246 5.281-3.589 11.091-1.681 7.275-1.681 21.525 0 28.8 1.343 5.81 1.846 7.364 3.589 11.091 2.552 5.458 6.765 10.473 11.393 13.561 6.232 4.159 16.517 6.306 23.68 4.945 3.858-.733 6.11-1.249 6.92-1.584.44-.183 1.413-.564 2.163-.847 13.154-4.97 20.637-20.041 20.637-41.566 0-21.438-7.535-36.615-20.637-41.566a89.308 89.308 0 01-2.163-.847c-.81-.335-3.062-.851-6.92-1.584-2.52-.479-7.344-.436-10.68.095M196.035 306.2c7.94 1.266 16.923 4.051 18.059 5.599.454.62.37 14.115-.091 14.399-.218.135-1.163-.281-2.1-.925-1.637-1.125-7.537-4.218-9.403-4.93-.495-.188-1.305-.498-1.8-.688-9.174-3.512-18.999-3.655-25.761-.375-4.218 2.046-6.139 4.946-6.139 9.267 0 7.033 4.122 9.898 18.2 12.649 1.32.258 3.12.62 4 .804.88.184 2.68.551 4 .814 13.093 2.615 20.082 8.149 22.026 17.444 2.194 10.484-3.056 20.74-13.281 25.942l-3.145 1.6-16.8.127c-18.698.141-18.811.13-25.138-2.471l-4.062-1.669-.108-7.893c-.121-8.775-.126-8.761 2.373-6.701 1.274 1.05 8.116 5.207 8.571 5.207.095 0 .936.348 1.868.773 8.645 3.938 20.572 5.089 27.296 2.635 6.408-2.34 8.605-5.192 8.593-11.157-.01-5.124-1.898-7.551-7.393-9.503-3.265-1.16-3.443-1.202-13.4-3.183-18.986-3.779-25.729-8.811-27.6-20.599-2.86-18.012 16.918-31.042 41.235-27.166M92.019 333.7c.02 26.722.25 31.386 1.763 35.667 4.058 11.484 19.39 12.114 35.2 1.445l3.013-2.033.102-30.289.103-30.29h13.6v79.6l-6 .115c-8.297.158-7.8.396-7.8-3.723 0-4.063.395-4.006-4.557-.663-7.048 4.756-5.654 4.471-21.855 4.471-15.981 0-15.354.116-19.084-3.536-3.091-3.027-5.479-7.116-6.578-11.264-1.446-5.464-1.51-6.987-1.518-36.3L78.4 308H92l.019 25.7m234.723 32.236c3.893 3.035 9.918 6.537 13.958 8.113.495.193 1.305.519 1.8.725 15.253 6.334 34.878 5.513 43.442-1.817 2.073-1.775 2.058-1.82 2.058 6.048 0 9.854 2.561 8.995-26.816 8.995h-22.697l-4.744-1.578c-2.609-.867-5.823-2.021-7.143-2.563l-2.4-.985-.108-9.037c-.12-10.151-.144-10.079 2.65-7.901" fill="#454a64"/><path d="M0 200v200h400V0H0v200m388.038-53.7c.02 73.865.065 158.36.1 187.767.034 29.406-.088 53.616-.271 53.8-.373.373-375.859.469-376.09.096-.081-.131-.034-84.776.104-188.1L12.132 12H388l.038 134.3M154 91.828c-11.467.944-22.787 3.472-29.496 6.585-.932.433-1.855.787-2.051.787-1.23 0-.865 6.908.687 12.983.322 1.263-.215.991 13.06 6.605 4.498 1.903 5.547 2.363 12.6 5.536 10.17 4.574 20.075 9.763 24.662 12.919 2.031 1.397 2.512 1.412 11.738.353 13.394-1.536 25.044-1.916 37.144-1.212 7.521.437 6.742.786 9.157-4.105 5.369-10.873 5.587-14.186 1.158-17.644C214.261 100.268 178.261 89.83 154 91.828m-47.686 16.49c-7.675 5.297-20.632 17.157-19.701 18.032.213.2 2.41.767 4.884 1.259l4.496.895 3.449-3.152c4.408-4.03 9.474-8.289 11.696-9.834 1.489-1.035 1.705-1.36 1.509-2.263-.126-.58-.429-2.402-.672-4.049-.669-4.517-.453-4.483-5.661-.888m8.833 17.382c-5.554 4.635-7.968 6.894-7.857 7.35.06.249 2.297 1.912 4.969 3.695 12.511 8.346 23.65 22.616 28.689 36.752 1.668 4.679 2.379 5.734 6.111 9.061 3.847 3.43 7.167 6.963 10.666 11.348 3.266 4.094 9.291 8.438 10.3 7.429.194-.194.476-12.507.628-27.364l.276-27.011-3.365-2.165c-3.227-2.077-15.956-8.69-20.964-10.891-1.32-.58-3.39-1.495-4.6-2.033a499.828 499.828 0 00-10.2-4.393c-12.473-5.174-10.824-4.974-14.653-1.778m129.28 3.2c-.196.495-.764 1.98-1.263 3.3-.498 1.32-1.684 3.915-2.635 5.767-2.095 4.08-2.089 3.696-.106 6.633 5.309 7.864 10.202 17.245 13.979 26.8 1.391 3.52 2.65 6.542 2.799 6.715.721.844 9.599-10.077 9.599-11.809 0-3.625-9.52-22.344-15.922-31.306-5.05-7.069-5.79-7.77-6.451-6.1M72 135.467c-29.588 4.685-44.871 29.482-38.355 62.232 5.097 25.618 24.744 40.641 59.755 45.691 9.191 1.326 37.999 2.276 46.588 1.536l3.788-.326.481-1.6c1.254-4.169.05-26.727-1.932-36.2-8.879-42.442-28.382-66.941-56.525-71.007-3.658-.529-11.368-.711-13.8-.326m125.6 11.574c-2.459.164-7.835.732-13.688 1.445-2.733.333-3.955.65-4.115 1.065-.125.326-.339 12.529-.477 27.12l-.25 26.529h3.427c5.231 0 16.329-1.297 23.703-2.769 15.373-3.071 38.438-11.462 41.437-15.075 1.719-2.071-14.667-35.742-18.352-37.71-.687-.367-27.556-.88-31.685-.605m85.4 10.857c-1.497.614-4.246 2.005-8.677 4.393-2.529 1.363-2.583 1.739-.728 5.101.882 1.598 1.879 3.684 2.215 4.637 1.74 4.932 3.968 3.996 7.688-3.229 5.126-9.954 4.98-13.15-.498-10.902m-223.578 1.656c8.297 3.769 6.666 17.221-2.407 19.859-8.817 2.563-14.516-9.752-7.906-17.085 2.859-3.171 6.992-4.282 10.313-2.774m40.255.116c4.754 1.425 8.22 7.562 7.141 12.647-2.576 12.137-18.152 9.641-18.203-2.917-.03-7.265 4.879-11.582 11.062-9.73M266.4 184.388c-12.41 12.541-30.665 20.777-58.009 26.17-30.137 5.944-44.768 4.349-55.29-6.026-2.769-2.731-2.858-2.684-2.063 1.095 1.416 6.73 2.552 15.988 2.558 20.846.005 3.874-1.653 3.518 16.832 3.621 22.048.124 29.17-.748 48.172-5.896 17.118-4.637 29.229-9.856 44.8-19.306 10.144-6.156 11.937-10.98 8.495-22.862-.708-2.443-.77-2.416-5.495 2.358m-180.933 4.256c3.124.837 1.765 4.365-3.267 8.485-9.946 8.143-11.834 9.009-16.25 7.455-5.135-1.807-13.603-8.896-14.153-11.849-.818-4.391 2.309-5.109 6.51-1.495 3.117 2.683 6.527 4.36 8.857 4.358 1.932-.001 2.358-.183 9.795-4.18 5.041-2.71 6.714-3.256 8.508-2.774M253.4 223.597c-5.5 2.384-12.02 4.992-14.489 5.796-6.605 2.15-6.218 1.555-6.264 9.637-.043 7.484.517 9.668 2.9 11.306 7.656 5.264 35.402 1.938 37.876-4.54 1.87-4.898-3.595-24.47-7.305-26.16-1.633-.744-2.439-.493-12.718 3.961m-94.647 17.97c-5.329.749-5.673 1.214-8.237 11.142-2.957 11.447-2.666 20.698.707 22.503 3.904 2.09 10.573 2.703 20.279 1.863 19.913-1.722 20.583-2.627 15.864-21.433-2.993-11.927-3.51-12.665-9.507-13.583-3.741-.573-16.237-.895-19.106-.492M57.254 243.9c-2.845 11.317-1.967 23.488 1.846 25.573 6.038 3.301 29.234 2.236 34.684-1.592 3.192-2.243 3.625-4.347 2.484-12.081l-.473-3.2-1.397-.283c-.769-.156-3.918-.662-6.998-1.125-3.08-.462-6.23-1.001-7-1.197l-4.6-1.171c-5.756-1.466-10.857-3.237-15.705-5.455-2.63-1.203-2.394-1.247-2.841.531"/></g></svg>